<svg width="16" height="16" viewBox="0 0 16 16" fill="none" xmlns="http://www.w3.org/2000/svg">
<g id="Line 16x16/Box" clip-path="url(#clip0_1_276)">
<g id="icon">
<path id="Vector 435 (Stroke)" fill-rule="evenodd" clip-rule="evenodd" d="M14.4095 3.27537C14.7786 3.14358 15.1668 3.41716 15.1668 3.80903V11.2923C15.1668 11.5069 15.0455 11.7031 14.8535 11.7991L8.32021 15.0658C7.94343 15.2542 7.50012 14.9802 7.50012 14.5589V6.14236C7.50012 5.90288 7.65067 5.68925 7.8762 5.60871L14.4095 3.27537ZM14.1668 4.42393L8.50012 6.44774V13.8578L14.1668 11.0245V4.42393Z" fill="#18191E"/>
<path id="Vector 436 (Stroke)" fill-rule="evenodd" clip-rule="evenodd" d="M0.833435 3.80903C0.833435 3.41717 1.22165 3.14357 1.59069 3.27537L8.12403 5.60871C8.34955 5.68925 8.5001 5.90288 8.5001 6.14236V14.5589C8.5001 14.9802 8.05679 15.2542 7.68001 15.0658L1.14668 11.7991C0.954702 11.7031 0.833435 11.5069 0.833435 11.2923V3.80903ZM1.83343 4.42393V11.0245L7.5001 13.8578V6.44774L1.83343 4.42393Z" fill="#18191E"/>
<path id="Vector 437 (Stroke)" fill-rule="evenodd" clip-rule="evenodd" d="M8.00008 1.86439L2.82002 3.71441L8.00008 5.56444L13.1801 3.71441L8.00008 1.86439ZM7.80949 0.870598C7.93274 0.826581 8.06743 0.826581 8.19068 0.870598L14.6591 3.18076C15.1606 3.35985 15.1606 4.06899 14.6591 4.24807L8.19068 6.55823C8.06743 6.60225 7.93274 6.60225 7.80949 6.55823L1.34104 4.24807C0.839603 4.06898 0.839611 3.35984 1.34104 3.18076L7.80949 0.870598Z" fill="#18191E"/>
</g>
</g>
<defs>
<clipPath id="clip0_1_276">
<rect width="16" height="16" fill="white"/>
</clipPath>
</defs>
</svg>
