<svg width="16" height="16" viewBox="0 0 16 16" fill="none" xmlns="http://www.w3.org/2000/svg">
<g id="Line 16x16/Chat 2" clip-path="url(#clip0_0_390)">
<g id="icon">
<path id="Rectangle 154 (Stroke)" fill-rule="evenodd" clip-rule="evenodd" d="M3.49997 3.33331C3.49997 1.9526 4.61926 0.833313 5.99997 0.833313L12.6666 0.833313C14.0473 0.833313 15.1666 1.9526 15.1666 3.33331L15.1666 6.66665C15.1666 8.04736 14.0473 9.16665 12.6666 9.16665H12.3333C11.8731 9.16665 11.5 8.79355 11.5 8.33331V5.66665C11.5 5.02231 10.9776 4.49998 10.3333 4.49998L4.66664 4.49998C4.0223 4.49998 3.49997 3.97765 3.49997 3.33331ZM5.99997 1.83331C5.17154 1.83331 4.49997 2.50489 4.49997 3.33331C4.49997 3.42536 4.57459 3.49998 4.66664 3.49998L10.3333 3.49998C11.5299 3.49998 12.5 4.47003 12.5 5.66665L12.5 8.16665H12.6666C13.4951 8.16665 14.1666 7.49507 14.1666 6.66665L14.1666 3.33331C14.1666 2.50489 13.4951 1.83331 12.6666 1.83331L5.99997 1.83331Z" fill="#A2A3A5"/>
<path id="Rectangle 153 (Stroke)" fill-rule="evenodd" clip-rule="evenodd" d="M0.833313 5.99991C0.833313 4.61919 1.9526 3.49991 3.33331 3.49991L9.99998 3.49991C11.3807 3.49991 12.5 4.6192 12.5 5.99991L12.5 9.55547C12.5 10.9362 11.3807 12.0555 9.99998 12.0555H7.64999L5.05024 14.92C4.51003 15.5152 3.52337 15.0761 3.60402 14.2764L3.82798 12.0555H3.33331C1.9526 12.0555 0.833313 10.9362 0.833313 9.55546L0.833313 5.99991ZM3.33331 4.49991C2.50489 4.49991 1.83331 5.17148 1.83331 5.99991L1.83331 9.55546C1.83331 10.3839 2.50489 11.0555 3.33331 11.0555H4.01229C4.50559 11.0555 4.89092 11.4816 4.84142 11.9724L4.64973 13.8733L6.95909 11.3288C7.11704 11.1547 7.34114 11.0555 7.57617 11.0555L9.99998 11.0555C10.8284 11.0555 11.5 10.3839 11.5 9.55547L11.5 5.99991C11.5 5.17148 10.8284 4.49991 9.99998 4.49991L3.33331 4.49991Z" fill="#A2A3A5"/>
</g>
</g>
<defs>
<clipPath id="clip0_0_390">
<rect width="16" height="16" fill="white"/>
</clipPath>
</defs>
</svg>
