<svg width="16" height="16" viewBox="0 0 16 16" fill="none" xmlns="http://www.w3.org/2000/svg">
<g id="iconmonstr-link-2 1">
<path id="Vector" d="M9.00504 11.8818L6.89922 13.9872C5.54823 15.3376 3.36249 15.3376 2.01208 13.9872C1.35875 13.335 1 12.4669 1 11.5441C1 10.6212 1.35875 9.75319 2.01149 9.10042L4.84998 6.26241C6.22372 4.88862 8.41646 4.94287 9.73654 6.26241C10.0008 6.52667 10.209 6.83002 10.3718 7.15319L9.44254 8.08189C9.33754 7.72429 9.15087 7.38828 8.88021 7.11819C8.03555 6.2735 6.58772 6.23733 5.70748 7.11761L5.70689 7.11878L2.86782 9.95678C1.99283 10.8312 1.99283 12.2558 2.86782 13.1302C3.75274 14.0152 5.17664 13.9982 6.04231 13.1302L7.45688 11.7162C8.03613 11.8818 8.50163 11.9116 9.00504 11.8818ZM9.09896 2.0127L7.01414 4.09876C7.50822 4.0696 7.97955 4.09876 8.56171 4.26385L9.95762 2.87023C10.8314 1.99403 12.2559 1.9952 13.1309 2.86964C14.0158 3.75517 13.9978 5.17913 13.1309 6.04424L10.3129 8.86241L10.3111 8.86358C9.47229 9.70186 8.0443 9.76894 7.13838 8.86241C6.86247 8.5859 6.68047 8.25456 6.58072 7.90397L6.53172 7.94363L5.64681 8.82741C5.81014 9.15176 6.01722 9.45451 6.28147 9.71877C7.59105 11.0284 9.78379 11.1036 11.1686 9.71877L13.9873 6.9006C15.3371 5.54956 15.3383 3.36432 13.9867 2.01387C12.6351 0.659907 10.4476 0.664573 9.09896 2.0127Z" fill="#3CBD0C"/>
</g>
</svg>
