<svg width="19" height="16" viewBox="0 0 19 16" fill="none" xmlns="http://www.w3.org/2000/svg">
<g id="Line 16x16/Pen">
<g id="icon">
<path id="Vector 287 (Stroke)" fill-rule="evenodd" clip-rule="evenodd" d="M12.5187 1.10425L15.1583 3.74391C15.4837 4.06935 15.4837 4.597 15.1583 4.92245L6.82512 12.9928C6.71957 13.0984 6.58759 13.1737 6.443 13.2108L2.89229 14.1219C2.27854 14.2794 1.72052 13.7214 1.87801 13.1076L2.78907 9.55681C2.82617 9.41221 2.90144 9.28022 3.007 9.17466L11.3402 1.10426C11.6656 0.778823 12.1932 0.77882 12.5187 1.10425ZM11.9294 1.92924L3.74634 9.84953L2.91663 13.0833L6.15028 12.2535L14.3334 4.33319L11.9294 1.92924Z" fill="#747578"/>
<path id="Vector 290 (Stroke)" fill-rule="evenodd" clip-rule="evenodd" d="M12 4.19511C12.1302 4.32528 12.1302 4.53633 12 4.66651L6.45863 10.0132C6.32846 10.1434 6.1174 10.1434 5.98722 10.0132C5.85705 9.88307 5.85704 9.67202 5.98721 9.54184L11.5286 4.19512C11.6588 4.06494 11.8698 4.06493 12 4.19511Z" fill="#747578"/>
<path id="Vector 289 (Stroke)" fill-rule="evenodd" clip-rule="evenodd" d="M3.33335 9.52831C3.46353 9.39814 3.67459 9.39814 3.80476 9.52832L6.45822 12.2088C6.58839 12.339 6.58839 12.55 6.45821 12.6802C6.32803 12.8104 6.11698 12.8104 5.98681 12.6802L3.33334 9.99972C3.20317 9.86954 3.20318 9.65848 3.33335 9.52831Z" fill="#747578"/>
</g>
</g>
</svg>
