<svg width="16" height="16" viewBox="0 0 16 16" fill="none" xmlns="http://www.w3.org/2000/svg">
<g id="Line 16x16/Plus" clip-path="url(#clip0_1_397)">
<path id="Vector (Stroke)" fill-rule="evenodd" clip-rule="evenodd" d="M8.00005 0.900328C8.2762 0.900328 8.50005 1.12419 8.50005 1.40033L8.50005 7.49999L14.5997 7.49999C14.8759 7.49999 15.0997 7.72385 15.0997 7.99999C15.0997 8.27613 14.8759 8.49999 14.5997 8.49999L8.50005 8.49999L8.50005 14.5997C8.50005 14.8758 8.2762 15.0997 8.00005 15.0997C7.72391 15.0997 7.50005 14.8758 7.50005 14.5997L7.50005 8.49999L1.40039 8.49999C1.12425 8.49999 0.900391 8.27613 0.900391 7.99999C0.900391 7.72385 1.12425 7.49999 1.40039 7.49999L7.50005 7.49999L7.50005 1.40033C7.50005 1.12419 7.72391 0.900328 8.00005 0.900328Z" fill="#18191E"/>
</g>
<defs>
<clipPath id="clip0_1_397">
<rect width="16" height="16" fill="white"/>
</clipPath>
</defs>
</svg>
