<svg width="16" height="16" viewBox="0 0 16 16" fill="none" xmlns="http://www.w3.org/2000/svg">
<g id="Line 16x16/Trash">
<g id="icon">
<path id="Vector 438 (Stroke)" fill-rule="evenodd" clip-rule="evenodd" d="M1.00024 3.71484C1.00024 3.4387 1.21889 3.21484 1.48861 3.21484L14.5116 3.21484C14.7814 3.21484 15 3.4387 15 3.71484C15 3.99099 14.7814 4.21484 14.5116 4.21484L1.48861 4.21484C1.21889 4.21484 1.00024 3.99099 1.00024 3.71484Z" fill="#A2A3A5"/>
<path id="Vector 439 (Stroke)" fill-rule="evenodd" clip-rule="evenodd" d="M3.83733 4.21484L3.83733 11.2671C3.83733 12.8687 5.10551 14.1671 6.66987 14.1671L9.33021 14.1671C10.8946 14.1671 12.1628 12.8687 12.1628 11.2671L12.1628 4.21484L3.83733 4.21484ZM2.8606 3.78151C2.8606 3.46855 3.1084 3.21484 3.41408 3.21484L12.586 3.21484C12.8917 3.21484 13.1395 3.46855 13.1395 3.78151L13.1395 11.2671C13.1395 13.421 11.434 15.1671 9.33021 15.1671L6.66987 15.1671C4.56607 15.1671 2.8606 13.421 2.8606 11.2671L2.8606 3.78151Z" fill="#A2A3A5"/>
<path id="Vector 440 (Stroke)" fill-rule="evenodd" clip-rule="evenodd" d="M6.13968 6.54785C6.40939 6.54785 6.62804 6.77171 6.62804 7.04785L6.62804 10.8573C6.62804 11.1335 6.40939 11.3573 6.13968 11.3573C5.86996 11.3573 5.65131 11.1335 5.65131 10.8573L5.65131 7.04785C5.65131 6.77171 5.86996 6.54785 6.13968 6.54785Z" fill="#A2A3A5"/>
<path id="Vector 441 (Stroke)" fill-rule="evenodd" clip-rule="evenodd" d="M9.86053 6.54785C10.1302 6.54785 10.3489 6.77171 10.3489 7.04785L10.3489 10.8573C10.3489 11.1335 10.1302 11.3573 9.86053 11.3573C9.59081 11.3573 9.37216 11.1335 9.37216 10.8573L9.37216 7.04785C9.37216 6.77171 9.59081 6.54785 9.86053 6.54785Z" fill="#A2A3A5"/>
<path id="Vector 442 (Stroke)" fill-rule="evenodd" clip-rule="evenodd" d="M6.51176 1.8335C6.06222 1.8335 5.69781 2.20659 5.69781 2.66683L5.69781 3.71442C5.69781 3.99056 5.47916 4.21442 5.20944 4.21442C4.93972 4.21442 4.72107 3.99056 4.72107 3.71442L4.72107 2.66683C4.72107 1.65431 5.52279 0.833496 6.51176 0.833496L9.48841 0.833496C10.4774 0.833496 11.2791 1.65431 11.2791 2.66683L11.2791 3.71442C11.2791 3.99056 11.0604 4.21442 10.7907 4.21442C10.521 4.21442 10.3024 3.99056 10.3024 3.71442L10.3024 2.66683C10.3024 2.20659 9.93794 1.8335 9.48841 1.8335L6.51176 1.8335Z" fill="#A2A3A5"/>
</g>
</g>
</svg>
